<svg width="167" height="40" viewBox="0 0 167 40" fill="none" xmlns="http://www.w3.org/2000/svg">
<path d="M8.64 21.52C9.76 21.52 10.6133 21.08 11.2 20.2C11.7867 19.32 12.08 18.1467 12.08 16.68C12.08 15.2667 11.7867 14.1467 11.2 13.32C10.64 12.4667 9.82667 12.04 8.76 12.04C7.69333 12.04 6.85333 12.48 6.24 13.36C5.65333 14.2133 5.36 15.36 5.36 16.8C5.36 18.24 5.64 19.3867 6.2 20.24C6.76 21.0933 7.57333 21.52 8.64 21.52ZM3.6 33.72C3.6 34.9467 4.05333 35.84 4.96 36.4C5.86667 36.96 7.16 37.24 8.84 37.24C10.9467 37.24 12.5333 36.8933 13.6 36.2C14.6933 35.5067 15.24 34.6667 15.24 33.68C15.24 32.9333 14.9733 32.2933 14.44 31.76C13.9333 31.2267 13.04 30.96 11.76 30.96H7.32C6.33333 30.96 5.45333 30.88 4.68 30.72C3.96 31.68 3.6 32.68 3.6 33.72ZM8.72 23.28C7.52 23.28 6.41333 23.1333 5.4 22.84C4.89333 23.5333 4.64 24.2667 4.64 25.04C4.64 25.5467 4.8 25.9467 5.12 26.24C5.46667 26.5333 6.08 26.68 6.96 26.68H11.96C14.5733 26.68 16.44 27.1733 17.56 28.16C18.68 29.1467 19.24 30.48 19.24 32.16C19.24 33.4133 18.8267 34.5867 18 35.68C17.2 36.7733 16 37.6533 14.4 38.32C12.8267 38.9867 10.8533 39.32 8.48 39.32C6.42667 39.32 4.77333 39.1067 3.52 38.68C2.29333 38.2533 1.4 37.68 0.84 36.96C0.306667 36.24 0.04 35.44 0.04 34.56C0.04 33.7067 0.32 32.92 0.88 32.2C1.44 31.5067 2.36 30.8533 3.64 30.24C2.81333 29.9467 2.2 29.5333 1.8 29C1.4 28.44 1.2 27.8 1.2 27.08C1.2 26.3067 1.42667 25.5467 1.88 24.8C2.36 24.0267 3.09333 23.1867 4.08 22.28C1.97333 21.2133 0.92 19.3867 0.92 16.8C0.92 14.8267 1.61333 13.2533 3 12.08C4.38667 10.88 6.29333 10.28 8.72 10.28C11.1467 10.28 13.04 10.84 14.4 11.96L18.92 10.24L19.52 10.64V13.44H15.64C16.2 14.3467 16.48 15.4667 16.48 16.8C16.48 18.7467 15.8 20.32 14.44 21.52C13.08 22.6933 11.1733 23.28 8.72 23.28ZM21.6109 30V28.36L24.1709 27.88C24.1976 26.8667 24.2109 25.7867 24.2109 24.64C24.2109 23.4667 24.2109 22.4533 24.2109 21.6V19.48C24.2109 18.3867 24.1976 17.52 24.1709 16.88C24.1709 16.2133 24.1443 15.48 24.0909 14.68L21.2909 14.32V12.8L27.9709 10.28L28.6109 10.68L29.0109 15.4C29.6243 13.7467 30.4509 12.48 31.4909 11.6C32.5309 10.72 33.5709 10.28 34.6109 10.28C35.3309 10.28 35.9843 10.4667 36.5709 10.84C37.1843 11.2133 37.5843 11.7467 37.7709 12.44C37.7443 13.4267 37.5043 14.2 37.0509 14.76C36.5976 15.2933 35.9709 15.56 35.1709 15.56C34.2109 15.56 33.3043 15.08 32.4509 14.12L32.0909 13.72C30.6776 14.8933 29.6643 16.5467 29.0509 18.68V21.6C29.0509 22.4267 29.0509 23.4133 29.0509 24.56C29.0509 25.68 29.0643 26.7333 29.0909 27.72L32.3709 28.36V30H21.6109ZM48.3184 12.2C47.6784 12.2 47.0384 12.4133 46.3984 12.84C45.7851 13.24 45.2518 13.9067 44.7984 14.84C44.3718 15.7733 44.1051 17.04 43.9984 18.64H49.4784C50.4384 18.64 51.0784 18.44 51.3984 18.04C51.7184 17.64 51.8784 17.08 51.8784 16.36C51.8784 15.1333 51.5318 14.1333 50.8384 13.36C50.1451 12.5867 49.3051 12.2 48.3184 12.2ZM48.3184 30.56C46.4518 30.56 44.8118 30.16 43.3984 29.36C41.9851 28.56 40.8784 27.4133 40.0784 25.92C39.2784 24.4 38.8784 22.6 38.8784 20.52C38.8784 18.3867 39.3318 16.56 40.2384 15.04C41.1718 13.4933 42.3718 12.32 43.8384 11.52C45.3318 10.6933 46.9184 10.28 48.5984 10.28C50.1718 10.28 51.5451 10.6133 52.7184 11.28C53.8918 11.9467 54.7984 12.88 55.4384 14.08C56.1051 15.28 56.4384 16.6933 56.4384 18.32C56.4384 19.1733 56.3584 19.9067 56.1984 20.52H43.9584C44.0651 22.8133 44.6651 24.5333 45.7584 25.68C46.8784 26.8267 48.2784 27.4 49.9584 27.4C51.1318 27.4 52.1184 27.1733 52.9184 26.72C53.7451 26.24 54.4918 25.6267 55.1584 24.88L56.3184 25.92C55.5451 27.3867 54.4784 28.5333 53.1184 29.36C51.7851 30.16 50.1851 30.56 48.3184 30.56ZM70.91 12.44V10.84H78.59V12.44L76.35 12.88L69.51 30.72C68.3633 33.7867 67.2033 36.0533 66.03 37.52C64.8567 38.9867 63.4033 39.72 61.67 39.72C60.63 39.72 59.7233 39.4533 58.95 38.92C58.2033 38.3867 57.8033 37.72 57.75 36.92C57.91 36.2 58.27 35.6533 58.83 35.28C59.4167 34.9333 60.0567 34.76 60.75 34.76C61.2833 34.76 61.8033 34.8667 62.31 35.08C62.8433 35.32 63.3767 35.7733 63.91 36.44L64.15 36.76C64.87 36.0667 65.4967 35.2667 66.03 34.36C66.5633 33.48 67.0033 32.5333 67.35 31.52L67.43 31.28L59.83 12.76L57.79 12.44V10.84H68.27V12.44L65.11 12.88L69.59 25.12L73.95 12.92L70.91 12.44ZM88.7928 30V28.36L91.3928 27.88C91.4195 26.8933 91.4328 25.8267 91.4328 24.68C91.4595 23.5067 91.4728 22.48 91.4728 21.6V4.4L88.5528 4.04V2.48L95.7128 0.679998L96.3128 1.04L96.1528 6.68V13.12C97.9395 11.2267 99.9261 10.28 102.113 10.28C103.553 10.28 104.859 10.6667 106.033 11.44C107.206 12.2133 108.126 13.3467 108.793 14.84C109.486 16.3067 109.833 18.1067 109.833 20.24C109.833 22.3467 109.446 24.1733 108.673 25.72C107.926 27.2667 106.926 28.4667 105.673 29.32C104.419 30.1467 103.019 30.56 101.473 30.56C100.433 30.56 99.4595 30.36 98.5528 29.96C97.6728 29.56 96.8461 28.8933 96.0728 27.96L95.5528 30.48L88.7928 30ZM100.193 13.12C99.5795 13.12 98.9395 13.28 98.2728 13.6C97.6328 13.92 96.9661 14.3733 96.2728 14.96V26.04C97.4995 27.1867 98.7528 27.76 100.033 27.76C101.339 27.76 102.446 27.16 103.353 25.96C104.259 24.76 104.713 22.9333 104.713 20.48C104.713 18 104.286 16.16 103.433 14.96C102.606 13.7333 101.526 13.12 100.193 13.12ZM112.149 30V28.36L114.869 27.84C114.896 26.8 114.909 25.76 114.909 24.72C114.936 23.68 114.949 22.64 114.949 21.6V4.44L112.029 4.04V2.48L119.309 0.679998L119.909 1.04L119.749 6.68V21.6C119.749 22.64 119.749 23.68 119.749 24.72C119.776 25.76 119.803 26.8 119.829 27.84L122.549 28.36V30H112.149ZM134.612 30.56C132.799 30.56 131.159 30.16 129.692 29.36C128.252 28.56 127.106 27.4 126.252 25.88C125.399 24.36 124.972 22.5467 124.972 20.44C124.972 18.3067 125.412 16.48 126.292 14.96C127.199 13.44 128.386 12.28 129.852 11.48C131.319 10.68 132.906 10.28 134.612 10.28C136.319 10.28 137.906 10.68 139.372 11.48C140.839 12.28 142.026 13.44 142.932 14.96C143.839 16.4533 144.292 18.28 144.292 20.44C144.292 22.5733 143.852 24.4 142.972 25.92C142.119 27.4133 140.959 28.56 139.492 29.36C138.052 30.16 136.426 30.56 134.612 30.56ZM134.612 28.6C136.052 28.6 137.146 27.9333 137.892 26.6C138.666 25.2667 139.052 23.2267 139.052 20.48C139.052 14.9867 137.572 12.24 134.612 12.24C131.679 12.24 130.212 14.9867 130.212 20.48C130.212 23.2267 130.586 25.2667 131.332 26.6C132.079 27.9333 133.172 28.6 134.612 28.6ZM155.398 21.52C156.518 21.52 157.371 21.08 157.958 20.2C158.544 19.32 158.838 18.1467 158.838 16.68C158.838 15.2667 158.544 14.1467 157.958 13.32C157.398 12.4667 156.584 12.04 155.518 12.04C154.451 12.04 153.611 12.48 152.998 13.36C152.411 14.2133 152.118 15.36 152.118 16.8C152.118 18.24 152.398 19.3867 152.958 20.24C153.518 21.0933 154.331 21.52 155.398 21.52ZM150.358 33.72C150.358 34.9467 150.811 35.84 151.718 36.4C152.624 36.96 153.918 37.24 155.598 37.24C157.704 37.24 159.291 36.8933 160.358 36.2C161.451 35.5067 161.998 34.6667 161.998 33.68C161.998 32.9333 161.731 32.2933 161.198 31.76C160.691 31.2267 159.798 30.96 158.518 30.96H154.078C153.091 30.96 152.211 30.88 151.438 30.72C150.718 31.68 150.358 32.68 150.358 33.72ZM155.478 23.28C154.278 23.28 153.171 23.1333 152.158 22.84C151.651 23.5333 151.398 24.2667 151.398 25.04C151.398 25.5467 151.558 25.9467 151.878 26.24C152.224 26.5333 152.838 26.68 153.718 26.68H158.718C161.331 26.68 163.198 27.1733 164.318 28.16C165.438 29.1467 165.998 30.48 165.998 32.16C165.998 33.4133 165.584 34.5867 164.758 35.68C163.958 36.7733 162.758 37.6533 161.158 38.32C159.584 38.9867 157.611 39.32 155.238 39.32C153.184 39.32 151.531 39.1067 150.278 38.68C149.051 38.2533 148.158 37.68 147.598 36.96C147.064 36.24 146.798 35.44 146.798 34.56C146.798 33.7067 147.078 32.92 147.638 32.2C148.198 31.5067 149.118 30.8533 150.398 30.24C149.571 29.9467 148.958 29.5333 148.558 29C148.158 28.44 147.958 27.8 147.958 27.08C147.958 26.3067 148.184 25.5467 148.638 24.8C149.118 24.0267 149.851 23.1867 150.838 22.28C148.731 21.2133 147.678 19.3867 147.678 16.8C147.678 14.8267 148.371 13.2533 149.758 12.08C151.144 10.88 153.051 10.28 155.478 10.28C157.904 10.28 159.798 10.84 161.158 11.96L165.678 10.24L166.278 10.64V13.44H162.398C162.958 14.3467 163.238 15.4667 163.238 16.8C163.238 18.7467 162.558 20.32 161.198 21.52C159.838 22.6933 157.931 23.28 155.478 23.28Z" fill="currentColor"/>
</svg>
